<svg width="24" height="24" viewBox="0 0 24 24" fill="none" xmlns="http://www.w3.org/2000/svg">
  <path fill="currentColor" fill-rule="evenodd" clip-rule="evenodd" d="M15.669 3.25099C16.884 3.26399 18.094 3.71499 18.98 4.60399C19.88 5.50499 20.374 6.70299 20.374 7.97899C20.374 9.25499 19.879 10.454 18.979 11.356L16.321 14.021C16.3065 14.0355 16.2906 14.0474 16.2746 14.0593C16.2608 14.0696 16.247 14.0799 16.234 14.092C16.2402 14.0432 16.2468 13.9944 16.2534 13.9457C16.2817 13.7358 16.31 13.5258 16.31 13.31C16.31 12.681 16.188 12.077 16.004 11.494L17.561 9.93299C18.182 9.31099 18.445 8.46699 18.351 7.65699C18.281 7.06099 18.018 6.48199 17.561 6.02399C17.02 5.48199 16.314 5.21199 15.609 5.21299C14.904 5.21399 14.199 5.48499 13.662 6.02399L11.004 8.68899C10.483 9.21099 10.196 9.90499 10.196 10.644C10.196 11.382 10.483 12.076 11.004 12.598L11.006 12.6C11.278 12.874 11.509 13.01 11.765 13.133C11.832 13.688 11.666 14.069 11.359 14.376L10.826 14.91C10.418 14.706 10.023 14.459 9.58502 14.019C8.68602 13.118 8.19202 11.92 8.19202 10.645C8.19202 9.36899 8.68702 8.16999 9.58702 7.26799L12.244 4.60399C13.158 3.68799 14.416 3.23699 15.669 3.25099ZM11.891 9.57898L12.415 9.05298C12.4348 9.06285 12.4561 9.07321 12.4789 9.08429C12.7216 9.20233 13.13 9.401 13.663 9.93398C14.563 10.836 15.058 12.034 15.058 13.31C15.058 14.586 14.563 15.785 13.663 16.687L11.005 19.352C10.105 20.254 8.909 20.75 7.637 20.75C6.365 20.75 5.169 20.254 4.27 19.352C3.37 18.45 2.875 17.252 2.875 15.976C2.875 14.7 3.37 13.501 4.27 12.599L6.928 9.93398C6.9425 9.91894 6.95844 9.9065 6.97443 9.89402C6.98822 9.88326 7.00204 9.87248 7.015 9.85998C7.00882 9.90871 7.00228 9.9574 6.99574 10.0061C6.96739 10.2173 6.939 10.4288 6.939 10.645C6.939 11.273 7.061 11.878 7.245 12.46L5.688 14.021C5.12 14.59 4.851 15.344 4.881 16.088C4.908 16.757 5.177 17.418 5.687 17.93L5.688 17.931C6.209 18.453 6.924 18.714 7.638 18.714C8.352 18.714 9.067 18.453 9.587 17.93L12.245 15.265C12.766 14.743 13.053 14.049 13.053 13.31C13.053 12.572 12.766 11.878 12.245 11.356C11.9025 11.0126 11.6969 10.9316 11.5647 10.8794C11.5367 10.8684 11.512 10.8586 11.49 10.848C11.41 10.273 11.586 9.88398 11.891 9.57898Z"/>
</svg>
