<svg class="disabled" width="24" height="24" viewBox="0 0 24 24" fill="none" xmlns="http://www.w3.org/2000/svg">
  <path fill="currentColor" fill-rule="evenodd" clip-rule="evenodd" d="M7 6.56044V5.83516C7 3.16614 9.23999 1 12 1C14.76 1 17 3.16614 17 5.83516V6.56044V7.76923V9.46154H19C19.5523 9.46154 20 9.8945 20 10.4286V22.033C20 22.567 19.5523 23 19 23H5C4.44772 23 4 22.567 4 22.033V10.4286C4 9.8945 4.44772 9.46154 5 9.46154H7V7.76923V6.56044ZM15 9.46154V7.76923V6.56044V5.83516C15 4.18155 13.71 2.83736 12 2.83736C10.29 2.83736 9 4.18155 9 5.83516V6.56044V7.76923V9.46154H15Z"/>
</svg>