<svg width="24" height="24" viewBox="0 0 24 24" fill="none" xmlns="http://www.w3.org/2000/svg">
  <path fill="currentColor" d="M3.567 4.07601C3.323 3.83201 2.927 3.83201 2.683 4.07601C2.439 4.32001 2.439 4.71601 2.683 4.96001L4.837 7.11401C3.804 7.42101 3.046 8.36701 3.046 9.50001V14.49C3.046 15.871 4.165 16.99 5.546 16.99H14.296C14.428 16.99 14.552 16.976 14.678 16.956L18.196 20.474C18.44 20.718 18.836 20.718 19.08 20.474C19.324 20.23 19.324 19.834 19.08 19.59L3.567 4.07601ZM16.796 14.5V9.50001C16.796 8.11901 15.677 7.00001 14.296 7.00001H8.258L16.631 15.373C16.732 15.1 16.796 14.808 16.796 14.5ZM18.046 10.125L20.771 7.85401C21.178 7.51501 21.796 7.80501 21.796 8.33401V15.666C21.796 16.196 21.178 16.485 20.771 16.146L18.046 13.875V10.125Z"/>
</svg>
