<svg width="24" height="24" viewBox="0 0 24 24" fill="none" xmlns="http://www.w3.org/2000/svg">
  <path fill="currentColor" fill-rule="evenodd" clip-rule="evenodd" d="M11.967 2H21.1406C21.6129 1.99907 22.0009 2.38531 22 2.85945V12.0338C22.0009 12.4537 21.6951 12.8138 21.279 12.882C20.8629 12.9503 20.4589 12.7071 20.3252 12.3078L18.6242 7.24556L12.1521 13.7181C11.636 14.2343 10.7981 14.2343 10.2819 13.7181C9.76569 13.2019 9.76569 12.3639 10.2819 11.8477L16.7539 5.37515L11.6921 3.67402C11.2928 3.54028 11.0496 3.13627 11.1179 2.72011C11.1862 2.30581 11.5452 2.00094 11.967 2ZM3 2H3.00011H3.00022H8.00022C8.5525 2 9.00022 2.44772 9.00022 3C9.00022 3.55229 8.5525 4 8.00022 4H4L4 20H20V16C20 15.4477 20.4477 15 21 15C21.5523 15 22 15.4477 22 16V21C22 21.5523 21.5523 22 21 22H3C2.44772 22 2 21.5523 2 21V3C2 2.44772 2.44772 2 3 2Z"/>
</svg>