<svg width="24" height="24" viewBox="0 0 24 24" fill="none" xmlns="http://www.w3.org/2000/svg">
  <path fill="currentColor" d="M21.387 10.484L19.822 10.26C19.263 10.18 18.792 9.809 18.576 9.288C18.574 9.283 18.571 9.277 18.569 9.272C18.351 8.749 18.421 8.153 18.761 7.7L19.709 6.435C19.922 6.151 19.894 5.753 19.643 5.501L18.499 4.357C18.248 4.106 17.85 4.077 17.565 4.291L16.3 5.239C15.847 5.579 15.251 5.648 14.728 5.431C14.723 5.429 14.717 5.426 14.712 5.424C14.19 5.208 13.82 4.737 13.74 4.178L13.517 2.613C13.466 2.261 13.165 2 12.809 2H11.191C10.836 2 10.534 2.261 10.484 2.613L10.26 4.178C10.18 4.737 9.809 5.208 9.288 5.424C9.283 5.426 9.277 5.428 9.272 5.43C8.749 5.648 8.152 5.579 7.699 5.239L6.435 4.29C6.15 4.077 5.752 4.105 5.501 4.357L4.357 5.501C4.105 5.752 4.077 6.15 4.29 6.435L5.238 7.7C5.578 8.153 5.647 8.749 5.43 9.272C5.428 9.277 5.426 9.283 5.424 9.288C5.208 9.81 4.737 10.18 4.178 10.26L2.613 10.484C2.261 10.534 2 10.835 2 11.191V12.809C2 13.165 2.261 13.466 2.613 13.516L4.178 13.74C4.737 13.82 5.208 14.191 5.424 14.712C5.426 14.717 5.429 14.723 5.431 14.728C5.649 15.251 5.579 15.847 5.239 16.3L4.29 17.565C4.077 17.849 4.105 18.247 4.356 18.499L5.5 19.643C5.751 19.894 6.149 19.923 6.434 19.709L7.699 18.761C8.152 18.421 8.748 18.352 9.271 18.569C9.276 18.571 9.282 18.574 9.287 18.576C9.809 18.792 10.179 19.263 10.259 19.822L10.483 21.387C10.534 21.739 10.835 22 11.191 22H12.809C13.165 22 13.466 21.739 13.516 21.387L13.74 19.822C13.82 19.263 14.191 18.792 14.712 18.576C14.717 18.574 14.723 18.571 14.728 18.569C15.251 18.351 15.847 18.421 16.3 18.761L17.565 19.709C17.849 19.922 18.247 19.894 18.499 19.643L19.643 18.499C19.894 18.248 19.923 17.85 19.709 17.565L18.761 16.301C18.421 15.848 18.351 15.252 18.569 14.729C18.571 14.724 18.574 14.718 18.576 14.713C18.792 14.191 19.263 13.821 19.822 13.741L21.387 13.517C21.739 13.466 22 13.165 22 12.809V11.191C22 10.835 21.739 10.534 21.387 10.484ZM12 15.75C9.929 15.75 8.25 14.071 8.25 12C8.25 9.929 9.929 8.25 12 8.25C14.071 8.25 15.75 9.929 15.75 12C15.75 14.071 14.071 15.75 12 15.75Z"/>
</svg>