<svg width="24" height="24" viewBox="0 0 24 24" fill="none" xmlns="http://www.w3.org/2000/svg">
  <path fill="currentColor"  d="M14.75 19H9.25L8.524 21.177C8.389 21.582 8.691 22 9.117 22H14.883C15.31 22 15.611 21.582 15.476 21.177L14.75 19ZM18.9 4H5.1C3.664 4 2.5 5.164 2.5 6.6V15.4C2.5 16.836 3.664 18 5.1 18H18.9C20.336 18 21.5 16.836 21.5 15.4V6.6C21.5 5.164 20.336 4 18.9 4ZM20 15.4C20 16.008 19.508 16.5 18.9 16.5H5.1C4.493 16.5 4 16.008 4 15.4V6.6C4 5.993 4.492 5.5 5.1 5.5H18.9C19.507 5.5 20 5.992 20 6.6V15.4ZM5.5 15H18.5V7H5.5V15Z"/>
</svg>