<svg width="24" height="24" viewBox="0 0 24 24" fill="none" xmlns="http://www.w3.org/2000/svg">
  <path fill="currentColor" d="M14.1649 9.46154V5.83516C14.1649 4.18154 15.4283 2.83736 17.1031 2.83736C18.7778 2.83736 20.0412 4.18154 20.0412 5.83516V6.56044H22V5.83516C22 3.16615 19.8062 1 17.1031 1C14.4 1 12.2062 3.16615 12.2062 5.83516V9.46154H14.1649Z"/>
  <path fill="currentColor" d="M2.97938 9.46154C2.43848 9.46154 2 9.89449 2 10.4286V22.033C2 22.567 2.43848 23 2.97938 23H17.1804C17.7213 23 18.1598 22.567 18.1598 22.033V10.4286C18.1598 9.89449 17.7213 9.46154 17.1804 9.46154H2.97938Z"/>
</svg>